<svg xmlns="http://www.w3.org/2000/svg" width="42.274" height="25.95" viewBox="0 0 42.274 25.95">
  <path id="Path_11426" data-name="Path 11426" d="M38.8,2.408C38.243,2.2,37.785.371,35.34.065c-3.26-.407-5.246,2.75-7.589,4.329-2.5,1.732-5.3,3.107-7.385,5.348-1.171,1.222-2.139,2.75-3.412,3.871-1.019.917-3.056,2.5-3.871,3.412a6.6,6.6,0,0,1-2.292,2.139c-2.343,1.273-4.737,2.5-7.029,3.82A33.13,33.13,0,0,0,.553,24.869c-.662.458-.662.917.306.662a40.9,40.9,0,0,0,5.093-2.343c2.088-.968,3.973-2.292,6.112-3.158a16.342,16.342,0,0,1,3.463-1.375c1.63-.2,3.362-.153,4.991-.2a32.571,32.571,0,0,1,4.431.407c.357.407.866.968,1.07,1.171.357.306,2.394,2.241,2.954,2.75S30.145,23.9,30.4,24.156c-.662-.051-1.834-.153-2.19-.2A7.851,7.851,0,0,0,26.325,24c-.407.153-.917.407-.968.56,0,.153.255.2.407.2s.458-.357.866-.407a9.187,9.187,0,0,1,1.681,0c-.153,0-.357.051-.458.051-.509.1-1.63.509-1.63.917,0,.357.407.407.407.2s.255-.458,1.07-.611a16.417,16.417,0,0,1,3.209-.051,9.243,9.243,0,0,1,2.445.357c1.07.306,1.63.407,2.445.662.713.2.866.051.764-.306-.153-.407-.407-.509-.917-.611-.662-.153-1.63-.357-2.139-.458a12.42,12.42,0,0,1-1.579-.306,12.338,12.338,0,0,1-1.681-1.579c-.306-.306-1.834-1.783-2.343-2.241a4.655,4.655,0,0,1-.968-1.273,7.979,7.979,0,0,0,2.9-.153c2.852-.713,5.348-3.056,7.283-5.2A10.757,10.757,0,0,0,39.109,9.9a5.231,5.231,0,0,0,.2-2.648A4.693,4.693,0,0,0,38.8,5.973a3.546,3.546,0,0,1,.306-1.681,4.187,4.187,0,0,1,1.732-.815,4.894,4.894,0,0,0,1.324-.407C43.285,2.408,39.312,2.612,38.8,2.408Zm-2.7.56c.1.611-1.171.407-1.019.153v-.1c.2-.2.255-.306.458-.306a.839.839,0,0,1,.56.2v.051Z" transform="translate(-0.089 -0.029)" fill="#62a9e3"/>
</svg>
