<svg xmlns="http://www.w3.org/2000/svg" width="50.565" height="36.439" viewBox="0 0 50.565 36.439">
  <g id="Group_8484" data-name="Group 8484" transform="translate(-449.98 -200.139)">
    <path id="Path_4" data-name="Path 4" d="M499.025,234.043s-4.9-6.253-5.239-9.126c-.338-2.7-.507-5.577,0-5.915s2.2-1.69,2.2-1.69l2.366.169,1.521-2.366s-1.859-1.521-1.859-2.2-2.366-1.859-2.366-1.859l-.507-2.7-1.183.507a8.18,8.18,0,0,1-4.056,3.887,7.13,7.13,0,0,1-3.718,2.2,88.416,88.416,0,0,0-9.8-2.028,32.972,32.972,0,0,0-9.464.338h0c-6.084,1.352-7.943-3.549-9.3-8.45a10.77,10.77,0,0,0-.338-1.183c-1.014-3.38-4.563-3.718-6.422-3.38-.507.169-1.014.676-.845,1.183s.676,1.014,1.183.845c.338,0,3.211-.507,3.887,2.028a10.772,10.772,0,0,1,.338,1.183c.845,3.211,2.7,9.3,8.112,10.14A10.358,10.358,0,0,0,461,219.509c-1.014,3.042-2.2,6.253-3.38,7.605s-2.535,5.07-2.7,5.746c0,.676.338,3.718.338,3.718h3.211l-.338-1.859-.676-.507s.338-3.042,1.69-4.056,6.422-4.9,7.774-4.9.507,6.084.845,6.422,3.38,4.732,3.38,4.732h3.38l-.169-1.69-.845-.507h-1.352s-1.69-2.7-1.352-3.38,2.535-4.394,3.042-5.746l6.422,1.014v9.126l.845,1.014h2.535l.169-1.352-1.183-.845s1.521-6.76,3.042-7.267,7.1,2.7,8.788,5.408a14.345,14.345,0,0,0,3.718,4.056h2.366v-1.69Z" transform="translate(0)" fill="#62a9e3"/>
  </g>
</svg>
