<svg xmlns="http://www.w3.org/2000/svg" width="45.937" height="43.711" viewBox="0 0 45.937 43.711">
  <g id="noun_364" transform="translate(0.002 0.001)">
    <path id="Path_2" data-name="Path 2" d="M34.8,51.02c-5.343.843-4.47-2.063-4.531-5.38l-.315-6.5-1.372,6.28c-.25,1.192-.565,2.284,1.124,3.159,1.19,1.033-.153,2.5-1.434,2.314-3.913.127-3.346-2.47-3.008-4.311l.22-2.66c.158-1.812.5-2.94.595-5.472l-.528-1.373A43.675,43.675,0,0,1,15.137,33.42l-2.349.312c-1.062.157-.777,1.408-.9,2.221l-.343,2.217L9.6,43.2l-.152.437a3.652,3.652,0,0,0,.407,2.436l1.028,2.1c.813,1.19,1.031,4.128-1.155,3.187L8.1,50.676c-1.154-.469-2.1-3.688-2.5-6.033l.032-3.285c-1-.31-1.41,5.6-1,6.815l1,3.066c.308,1-.845,1.342-1.658,1.342-1.908,0-2.752-1.938-3.159-3.565L.507,47.8a9.7,9.7,0,0,1,.746-6.382l.437-1.026c.874-2.035-.188-3.505-.437-4.538-.813-3.315-1.47-6.534.814-9.723l.159-.218A8.427,8.427,0,0,1,1.1,23.886c-.876-2.817-1.657-7.44-.56-7.44l.718-.035c1.847,0,1.311,7.629,3.5,7.13l15.882.158,2.782-.753a10.873,10.873,0,0,0,2.812-1.5l1.81-1.124a17.184,17.184,0,0,0,6.911,4.471c.815,6.218-.091,7.6-.874,11.313l-.316,1.5a32.32,32.32,0,0,0-.62,8.131l.062,1.281c-.03,1.312.716,1.406,1.749,1.718A1.264,1.264,0,0,1,34.8,51.02Z" transform="translate(0 -8.872)" fill="#62a9e3" fill-rule="evenodd"/>
    <path id="Path_3" data-name="Path 3" d="M72.683,4.167a19.738,19.738,0,0,1,2.844,2.594l1.1,1.191c.718.746,1.81.655,2.781.842l.341.062c1.062.56.724,1.687.376,2.532l-.219.53c-1,2.41-3.971,2.6-6.067,1.469l-.935-.5h-.316l-.653.437-1.345,1.063a19.81,19.81,0,0,1-6.724-4.532l4.1-5.13,1.374-2,.28-.657.315-.722c.25-.808,1.281-1.591,2.035-1.281a2.472,2.472,0,0,1,1,2.411l-.187.813-.093.875Z" transform="translate(-34.528 0)" fill="#62a9e3" fill-rule="evenodd"/>
  </g>
</svg>
